# xmcd CD database file
#
# Track frame offsets:
#	150
#	16404
#	30170
#	46725
#	63175
#	73684
#	88415
#	100449
#	115220
#	132527
#	147969
#	160279
#	174062
#
# Disc length: 2504 seconds
#
# Revision: 0
# Processed by: cddbd v1.5.2PL0 Copyright (c) Steve Scherf et al.
# Submitted via: CDex 1.70beta1
#
DISCID=ab09c60d
DTITLE=Frantisek Nedved - Pata
DYEAR=2006
DGENRE=Country
TTITLE0=Jen trpelivost lasko ma
TTITLE1=Fata morgana
TTITLE2=Fotek plna skrin
TTITLE3=Kdyz jsem dospel
TTITLE4=Klidek
TTITLE5=Houpaci kreslo
TTITLE6=Opusteny lokal
TTITLE7=Sneni
TTITLE8=Uz ti nemam co rict
TTITLE9=Jak se da tu zit
TTITLE10=Jeste nevstavej
TTITLE11=Blanik
TTITLE12=Jsi mym osudem
EXTD=YEAR: 2006
EXTT0=
EXTT1=
EXTT2=
EXTT3=
EXTT4=
EXTT5=
EXTT6=
EXTT7=
EXTT8=
EXTT9=
EXTT10=
EXTT11=
EXTT12=
PLAYORDER=
